<?xml version="1.0" encoding="UTF-8" standalone="no"?>
<svg
   xmlns:dc="http://purl.org/dc/elements/1.1/"
   xmlns:cc="http://creativecommons.org/ns#"
   xmlns:rdf="http://www.w3.org/1999/02/22-rdf-syntax-ns#"
   xmlns:svg="http://www.w3.org/2000/svg"
   xmlns="http://www.w3.org/2000/svg"
   xmlns:sodipodi="http://sodipodi.sourceforge.net/DTD/sodipodi-0.dtd"
   xmlns:inkscape="http://www.inkscape.org/namespaces/inkscape"
   version="1.1"
   id="Layer_1"
   x="0px"
   y="0px"
   viewBox="0 0 512 512"
   style="enable-background:new 0 0 512 512;"
   xml:space="preserve"
   sodipodi:docname="google-chrome.svg"
   inkscape:version="1.0.1 (3bc2e813f5, 2020-09-07)"><metadata
   id="metadata45"><rdf:RDF><cc:Work
       rdf:about=""><dc:format>image/svg+xml</dc:format><dc:type
         rdf:resource="http://purl.org/dc/dcmitype/StillImage" /></cc:Work></rdf:RDF></metadata><defs
   id="defs43" /><sodipodi:namedview
   pagecolor="#ffffff"
   bordercolor="#666666"
   borderopacity="1"
   objecttolerance="10"
   gridtolerance="10"
   guidetolerance="10"
   inkscape:pageopacity="0"
   inkscape:pageshadow="2"
   inkscape:window-width="1825"
   inkscape:window-height="1036"
   id="namedview41"
   showgrid="false"
   inkscape:zoom="1.4277344"
   inkscape:cx="257.40082"
   inkscape:cy="256"
   inkscape:window-x="53"
   inkscape:window-y="36"
   inkscape:window-maximized="0"
   inkscape:current-layer="Layer_1"
   inkscape:document-rotation="0" />
<path
   style="fill:#82d889;stroke-width:0.781248"
   d="m 256,358.06874 c -20,0 -38.6203,-5.51718 -55.17266,-16.55154 -16.55156,-11.03438 -28.96562,-24.82736 -37.2414,-42.06876 L 80.827344,156 C 63.585938,187.03438 56,220.82734 56,256 c 0,50.34454 16.551562,93.79296 48.96562,131.03438 32.41407,37.2414 73.10313,59.31016 121.3797,66.89688 L 284.27656,353.2414 c -5.51796,2.06876 -15.8625,4.82734 -28.27656,4.82734"
   id="path2" />
<path
   style="fill:#e86438;stroke-width:0.781248"
   d="M 193.24141,173.2414 C 211.86172,158.7586 232.55156,152.55156 256,152.55156 H 427.72422 C 409.79296,122.20704 385.65546,100.1375 355.31016,82.8961 324.96562,64.96562 291.86172,56 256,56 224.96562,56 195.31016,62.89688 168.41406,76 141.51797,89.10312 116,108.41406 98.068752,133.2414 L 156,228.41406 c 5.51719,-22.06952 18.62032,-40.68984 37.24141,-55.17266"
   id="path4" />
<path
   style="fill:#fce056;stroke-width:0.781248"
   d="M 440.82734,180.82734 H 324.96562 c 20,20 33.79298,46.20704 33.79298,75.17266 0,21.37968 -6.20704,40.68984 -17.93126,58.62032 L 258.06876,456 c 54.4828,-0.68984 101.37968,-20 139.99998,-59.31016 C 436.68906,357.3797 456,310.4828 456,256 c 0,-25.5172 -4.13828,-52.41406 -15.17266,-75.17266"
   id="path6" />
<path
   style="fill:#25b9e1;stroke-width:0.781248"
   d="m 256,180.13828 c 41.37968,0 75.86172,34.48282 75.86172,75.86172 0,41.3789 -34.48204,75.86172 -75.86172,75.86172 -41.3797,0 -75.86172,-34.48204 -75.86172,-75.86172 0,-41.3797 34.48202,-75.86172 75.86172,-75.86172"
   id="path8" />
<g
   id="g10"
   transform="matrix(0.78125,0,0,0.78125,56,56)">
</g>
<g
   id="g12"
   transform="matrix(0.78125,0,0,0.78125,56,56)">
</g>
<g
   id="g14"
   transform="matrix(0.78125,0,0,0.78125,56,56)">
</g>
<g
   id="g16"
   transform="matrix(0.78125,0,0,0.78125,56,56)">
</g>
<g
   id="g18"
   transform="matrix(0.78125,0,0,0.78125,56,56)">
</g>
<g
   id="g20"
   transform="matrix(0.78125,0,0,0.78125,56,56)">
</g>
<g
   id="g22"
   transform="matrix(0.78125,0,0,0.78125,56,56)">
</g>
<g
   id="g24"
   transform="matrix(0.78125,0,0,0.78125,56,56)">
</g>
<g
   id="g26"
   transform="matrix(0.78125,0,0,0.78125,56,56)">
</g>
<g
   id="g28"
   transform="matrix(0.78125,0,0,0.78125,56,56)">
</g>
<g
   id="g30"
   transform="matrix(0.78125,0,0,0.78125,56,56)">
</g>
<g
   id="g32"
   transform="matrix(0.78125,0,0,0.78125,56,56)">
</g>
<g
   id="g34"
   transform="matrix(0.78125,0,0,0.78125,56,56)">
</g>
<g
   id="g36"
   transform="matrix(0.78125,0,0,0.78125,56,56)">
</g>
<g
   id="g38"
   transform="matrix(0.78125,0,0,0.78125,56,56)">
</g>
</svg>
